<?xml version="1.0" encoding="UTF-8" standalone="no"?>
<!-- Created with Inkscape (http://www.inkscape.org/) -->

<svg
   width="210mm"
   height="297mm"
   viewBox="0 0 210 297"
   version="1.1"
   id="svg1"
   inkscape:export-filename="logo.png"
   inkscape:export-xdpi="96"
   inkscape:export-ydpi="96"
   inkscape:version="1.3.2 (091e20e, 2023-11-25, custom)"
   sodipodi:docname="glitchy-logo.svg"
   xmlns:inkscape="http://www.inkscape.org/namespaces/inkscape"
   xmlns:sodipodi="http://sodipodi.sourceforge.net/DTD/sodipodi-0.dtd"
   xmlns="http://www.w3.org/2000/svg"
   xmlns:svg="http://www.w3.org/2000/svg">
  <sodipodi:namedview
     id="namedview1"
     pagecolor="#505050"
     bordercolor="#ffffff"
     borderopacity="1"
     inkscape:showpageshadow="0"
     inkscape:pageopacity="0"
     inkscape:pagecheckerboard="1"
     inkscape:deskcolor="#505050"
     inkscape:document-units="mm"
     inkscape:zoom="0.6249263"
     inkscape:cx="1188.9402"
     inkscape:cy="872.90294"
     inkscape:window-width="1920"
     inkscape:window-height="1009"
     inkscape:window-x="-8"
     inkscape:window-y="-8"
     inkscape:window-maximized="1"
     inkscape:current-layer="layer1"
     showguides="true" />
  <defs
     id="defs1" />
  <g
     inkscape:label="Layer 1"
     inkscape:groupmode="layer"
     id="layer1">
    <path
       id="path3"
       style="fill:#000000;stroke-width:0.26656"
       d="M 93.215499 66.247636 L 52.521859 91.169112 L 37.368778 136.41648 L 54.845231 180.81894 L 96.774455 203.59946 L 143.53698 194.09926 L 173.25196 156.76252 L 173.24627 156.54032 L 155.55123 151.16132 L 155.55381 151.25433 L 133.68693 178.72914 L 99.275594 185.72045 L 68.421663 168.95661 L 55.56095 136.28264 L 66.712207 102.98596 L 96.656632 84.64703 L 131.38371 89.846712 L 154.18077 115.62757 L 170.77821 107.66061 L 140.40693 73.313354 L 93.215499 66.247636 z " />
    <path
       id="path3-2"
       style="fill:#000000;stroke-width:0.264583"
       d="m -88.419206,48.071162 -45.417384,13.43949 -26.15241,39.489058 5.34851,47.0607 34.34778,32.613 47.274631,2.90421 38.081908,-28.16262 11.06909,-46.05197 -21.1217,-42.39328 z m -0.926559,17.895549 31.958774,13.906644 15.54323,31.196035 -8.14575,33.88837 -28.023095,20.72432 -34.788054,-2.13734 -25.27546,-23.99854 -3.9362,-34.63096 19.24534,-29.058694 z" />
    <path
       sodipodi:type="star"
       style="fill:#000000;stroke-width:0.264583"
       id="path3-8"
       inkscape:flatsided="true"
       sodipodi:sides="9"
       sodipodi:cx="73.173904"
       sodipodi:cy="67.35038"
       sodipodi:r1="69.241371"
       sodipodi:r2="34.620686"
       sodipodi:arg1="0.58496002"
       sodipodi:arg2="0.93402587"
       inkscape:rounded="0"
       inkscape:randomized="0"
       d="M 130.9028,105.58311 92.821277,133.74577 45.546529,130.84129 11.198937,98.228704 5.850121,51.167807 32.002852,11.678916 77.419975,-1.7606782 120.85032,17.13756 141.97233,59.530934 Z"
       transform="translate(230.93037,20.380405)" />
    <path
       sodipodi:type="star"
       style="fill:#e6e6e6;stroke-width:0.264583"
       id="path3-1-1"
       inkscape:flatsided="true"
       sodipodi:sides="9"
       sodipodi:cx="73.173904"
       sodipodi:cy="67.35038"
       sodipodi:r1="69.241371"
       sodipodi:r2="34.620686"
       sodipodi:arg1="0.58496002"
       sodipodi:arg2="0.93402587"
       inkscape:rounded="0"
       inkscape:randomized="0"
       d="M 130.9028,105.58311 92.821277,133.74577 45.546529,130.84129 11.198937,98.228704 5.850121,51.167807 32.002852,11.678916 77.419975,-1.7606782 120.85032,17.13756 141.97233,59.530934 Z"
       transform="matrix(0.60143783,0,0,0.60143783,260.38858,46.682544)" />
    <path
       id="path3-8-9"
       style="fill:#ffffff;stroke-width:0.264583;fill-opacity:1"
       d="m 307.69646,179.00458 -45.41686,13.43949 -26.15293,39.48906 5.34903,47.06069 34.34726,32.61248 47.27463,2.90474 24.92458,-18.43247 -14.24668,-21.88704 -0.0899,-0.0884 -18.12448,13.40383 -28.43289,-1.74666 -20.65817,-19.61431 -3.21686,-28.30422 15.72927,-23.75049 27.31513,-8.08271 26.12089,11.36572 12.70362,25.49715 -0.0868,0.36019 3.20911,3.14141 24.00473,-6.07664 -21.12222,-42.39379 z"
       sodipodi:nodetypes="cccccccccccccccccccccc"
       inkscape:export-filename="logo.png"
       inkscape:export-xdpi="96"
       inkscape:export-ydpi="96" />
    <path
       style="fill:none;stroke-width:1;stroke-dasharray:none"
       d="m 76.971865,141.28389 c 105.836315,0 105.329925,0 105.329925,0 v 60.76726"
       id="path5" />
    <path
       style="fill:none;stroke:#000000;stroke-width:18.5208;stroke-linecap:butt;stroke-linejoin:miter;stroke-dasharray:none;stroke-opacity:1"
       d="m 72.51068,156.75518 35.2631,-44.65165 28.86264,38.28689 34.46184,-5.37317 -1.26599,54.37275"
       id="path6"
       sodipodi:nodetypes="ccccc" />
    <path
       style="fill:none;stroke:#00ffa6;stroke-width:18.5208;stroke-linecap:butt;stroke-linejoin:miter;stroke-dasharray:none;stroke-opacity:1"
       d="m 275.6117,259.39321 26.28104,-26.42046 22.37327,28.63765 34.91193,0.85972 0.20124,51.68759"
       id="path6-9"
       sodipodi:nodetypes="ccccc"
       inkscape:export-filename="logo.png"
       inkscape:export-xdpi="96"
       inkscape:export-ydpi="96" />
    <path
       id="path3-0"
       style="fill:#000000;stroke-width:0.26656"
       d="m -251.60869,297.08258 -40.69364,24.92147 -15.15308,45.24737 17.47646,44.40246 41.92922,22.78052 46.76252,-9.5002 29.71498,-37.33674 -0.006,-0.2222 -17.69504,-5.379 0.003,0.093 -21.86688,27.47481 -34.41133,6.99131 -30.85393,-16.76384 -12.86071,-32.67397 11.15125,-33.29668 29.94443,-18.33893 34.72707,5.19968 22.79706,25.78086 16.59744,-7.96696 -30.37128,-34.34726 z" />
    <path
       style="fill:none;stroke:#000000;stroke-width:18.5208;stroke-linecap:butt;stroke-linejoin:miter;stroke-dasharray:none;stroke-opacity:1"
       d="m -272.3135,387.59012 35.2631,-44.65165 28.86263,38.28689 34.46184,-5.37317 -1.26599,54.37275"
       id="path6-0"
       sodipodi:nodetypes="ccccc" />
    <text
       xml:space="preserve"
       style="font-size:70.5556px;fill:#ffffff;stroke:none;stroke-width:18.5208;stroke-linecap:butt;stroke-linejoin:miter;stroke-dasharray:none;stroke-opacity:1;-inkscape-font-specification:Lato;font-family:Lato;font-weight:normal;font-style:normal;font-stretch:normal;font-variant:normal"
       x="378.95135"
       y="313.90308"
       id="text7"><tspan
         sodipodi:role="line"
         id="tspan7"
         style="font-style:normal;font-variant:normal;font-weight:normal;font-stretch:normal;font-size:70.5556px;font-family:Lato;-inkscape-font-specification:Lato;stroke-width:18.5208"
         x="378.95135"
         y="313.90308">Glitchy</tspan></text>
  </g>
</svg>
